<?xml version="1.0" encoding="utf-8"?>
<!-- Generator: Adobe Illustrator 19.2.1, SVG Export Plug-In . SVG Version: 6.00 Build 0)  -->
<svg xmlns="http://www.w3.org/2000/svg" xmlns:xlink="http://www.w3.org/1999/xlink" version="1.1" id="Layer" x="0px" y="0px" width="512" height="512" viewBox="0 0 64 64" enable-background="new 0 0 64 64" xml:space="preserve">
<path d="M54,21c-1.654,0-3-1.346-3-3c0-0.552-0.448-1-1-1H38.5l-5.7-7.6c-0.377-0.504-1.223-0.504-1.6,0L25.5,17H14  c-0.552,0-1,0.448-1,1c0,1.654-1.346,3-3,3c-0.552,0-1,0.448-1,1v32c0,0.552,0.448,1,1,1h44c0.552,0,1-0.448,1-1V22  C55,21.448,54.552,21,54,21z M39,37v-5c0-1.958-0.81-3.728-2.11-5H53v10H39z M37,32v5H27v-5c0-2.757,2.243-5,5-5S37,29.243,37,32z   M25,32v5H11V27h16.11C25.81,28.272,25,30.042,25,32z M11,39h7.026C17.391,39.838,17,40.87,17,42v3h-6V39z M19,42  c0-1.654,1.346-3,3-3s3,1.346,3,3v11h-6V42z M25.974,39h12.051C37.391,39.838,37,40.87,37,42v11H27V42  C27,40.87,26.609,39.838,25.974,39z M39,42c0-1.654,1.346-3,3-3s3,1.346,3,3v11h-6V42z M45.974,39H53v6h-6v-3  C47,40.87,46.609,39.838,45.974,39z M14.899,19H26c0.315,0,0.611-0.148,0.8-0.4l5.2-6.934l5.2,6.934c0.188,0.252,0.485,0.4,0.8,0.4  h11.101c0.398,1.956,1.943,3.501,3.899,3.899V25H11v-2.101C12.956,22.501,14.501,20.956,14.899,19z M11,47h6v6h-6V47z M47,53v-6h6v6  H47z"/>
</svg>
